<svg width="261" height="91" viewBox="0 0 261 91" fill="none" xmlns="http://www.w3.org/2000/svg">
<rect width="261" height="91" fill="white"/>
<path d="M42.5052 66C42.1586 66 41.9852 65.8267 41.9852 65.48V30.64C41.9852 30.2933 42.1586 30.12 42.5052 30.12C42.8866 30.12 43.0772 30.2933 43.0772 30.64V64.908H54.8292C55.1759 64.908 55.3492 65.0813 55.3492 65.428C55.3492 65.8093 55.1759 66 54.8292 66H42.5052ZM60.5326 66C60.1859 66 60.0126 65.8267 60.0126 65.48V30.64C60.0126 30.2933 60.1859 30.12 60.5326 30.12H70.3606C70.7072 30.12 70.8806 30.2933 70.8806 30.64C70.8806 31.0213 70.7072 31.212 70.3606 31.212H61.1046V46.136H69.8406C70.1872 46.136 70.3606 46.3093 70.3606 46.656C70.3606 47.0373 70.1872 47.228 69.8406 47.228H61.1046V64.908H70.3606C70.7072 64.908 70.8806 65.0813 70.8806 65.428C70.8806 65.8093 70.7072 66 70.3606 66H60.5326ZM75.7995 66C75.4528 66 75.2795 65.8267 75.2795 65.48L77.6715 30.64C77.6715 30.2933 77.8448 30.12 78.1915 30.12C78.3648 30.12 78.5208 30.1893 78.6595 30.328L85.1595 36.152C85.7835 36.7067 86.3381 37.244 86.8235 37.764C87.3088 37.244 87.8635 36.7067 88.4875 36.152L94.9875 30.328C95.1261 30.1893 95.2821 30.12 95.4555 30.12C95.8021 30.12 95.9755 30.2933 95.9755 30.64L98.3675 65.48C98.3675 65.8267 98.1941 66 97.8475 66C97.4661 66 97.2755 65.8267 97.2755 65.48L94.9875 31.836L89.1635 36.984C88.5395 37.5387 88.0021 38.076 87.5515 38.596C88.2448 39.4627 88.7301 40.2947 89.0075 41.092C89.3195 41.8893 89.4755 42.704 89.4755 43.536C89.4755 44.472 89.3021 45.3213 88.9555 46.084C88.6435 46.8467 88.2795 47.592 87.8635 48.32C87.6901 48.632 87.5515 48.892 87.4475 49.1C87.7941 49.7933 88.0888 50.5733 88.3315 51.44C88.6088 52.3067 88.7475 53.2947 88.7475 54.404C88.7475 55.34 88.5741 56.224 88.2275 57.056C87.8808 57.8533 87.4128 58.252 86.8235 58.252C86.2341 58.252 85.7661 57.8533 85.4195 57.056C85.0728 56.224 84.8995 55.34 84.8995 54.404C84.8995 53.2947 85.0208 52.3067 85.2635 51.44C85.5408 50.5733 85.8528 49.7933 86.1995 49.1C86.0955 48.892 85.9568 48.632 85.7835 48.32C85.3675 47.592 84.9861 46.8467 84.6395 46.084C84.3275 45.3213 84.1715 44.472 84.1715 43.536C84.1715 41.872 84.8128 40.2253 86.0955 38.596C85.6448 38.076 85.1075 37.5387 84.4835 36.984L78.6595 31.836L76.3715 65.48C76.3715 65.8267 76.1808 66 75.7995 66ZM86.7195 47.748L86.8235 47.956L86.9275 47.748C87.3088 47.0547 87.6381 46.3787 87.9155 45.72C88.2275 45.0267 88.3835 44.2987 88.3835 43.536C88.3835 42.184 87.8635 40.8147 86.8235 39.428C85.7835 40.8147 85.2635 42.184 85.2635 43.536C85.2635 44.2987 85.4021 45.0267 85.6795 45.72C85.9915 46.3787 86.3381 47.0547 86.7195 47.748ZM85.9915 54.404C85.9915 54.9933 86.0781 55.5653 86.2515 56.12C86.4248 56.6747 86.6155 57.004 86.8235 57.108C86.9968 57.004 87.1701 56.6747 87.3435 56.12C87.5515 55.5653 87.6555 54.9933 87.6555 54.404C87.6555 53.6067 87.5688 52.8787 87.3955 52.22C87.2568 51.5613 87.0661 50.9373 86.8235 50.348C86.5808 50.9373 86.3728 51.5613 86.1995 52.22C86.0608 52.8787 85.9915 53.6067 85.9915 54.404ZM102.069 66C101.861 66 101.705 65.9307 101.601 65.792C101.531 65.6187 101.514 65.4627 101.549 65.324L110.909 30.536C110.978 30.2587 111.151 30.12 111.429 30.12C111.741 30.12 111.931 30.2587 112.001 30.536L121.413 65.324C121.482 65.4627 121.465 65.6187 121.361 65.792C121.257 65.9307 121.101 66 120.893 66C120.615 66 120.442 65.8613 120.373 65.584L116.681 52.012H106.229L102.589 65.584C102.519 65.8613 102.346 66 102.069 66ZM106.541 50.92H116.421L111.481 32.616L106.541 50.92ZM124.34 51.492C123.994 51.492 123.82 51.3013 123.82 50.92C123.82 50.5733 123.994 50.4 124.34 50.4H134.012C134.359 50.4 134.532 50.5733 134.532 50.92C134.532 51.3013 134.359 51.492 134.012 51.492H124.34ZM139.479 66C139.132 66 138.959 65.8267 138.959 65.48L141.351 30.64C141.351 30.2933 141.524 30.12 141.871 30.12C142.044 30.12 142.2 30.1893 142.339 30.328L148.839 36.152C149.463 36.7067 150.018 37.244 150.503 37.764C150.988 37.244 151.543 36.7067 152.167 36.152L158.667 30.328C158.806 30.1893 158.962 30.12 159.135 30.12C159.482 30.12 159.655 30.2933 159.655 30.64L162.047 65.48C162.047 65.8267 161.874 66 161.527 66C161.146 66 160.955 65.8267 160.955 65.48L158.667 31.836L152.843 36.984C152.219 37.5387 151.682 38.076 151.231 38.596C151.924 39.4627 152.41 40.2947 152.687 41.092C152.999 41.8893 153.155 42.704 153.155 43.536C153.155 44.472 152.982 45.3213 152.635 46.084C152.323 46.8467 151.959 47.592 151.543 48.32C151.37 48.632 151.231 48.892 151.127 49.1C151.474 49.7933 151.768 50.5733 152.011 51.44C152.288 52.3067 152.427 53.2947 152.427 54.404C152.427 55.34 152.254 56.224 151.907 57.056C151.56 57.8533 151.092 58.252 150.503 58.252C149.914 58.252 149.446 57.8533 149.099 57.056C148.752 56.224 148.579 55.34 148.579 54.404C148.579 53.2947 148.7 52.3067 148.943 51.44C149.22 50.5733 149.532 49.7933 149.879 49.1C149.775 48.892 149.636 48.632 149.463 48.32C149.047 47.592 148.666 46.8467 148.319 46.084C148.007 45.3213 147.851 44.472 147.851 43.536C147.851 41.872 148.492 40.2253 149.775 38.596C149.324 38.076 148.787 37.5387 148.163 36.984L142.339 31.836L140.051 65.48C140.051 65.8267 139.86 66 139.479 66ZM150.399 47.748L150.503 47.956L150.607 47.748C150.988 47.0547 151.318 46.3787 151.595 45.72C151.907 45.0267 152.063 44.2987 152.063 43.536C152.063 42.184 151.543 40.8147 150.503 39.428C149.463 40.8147 148.943 42.184 148.943 43.536C148.943 44.2987 149.082 45.0267 149.359 45.72C149.671 46.3787 150.018 47.0547 150.399 47.748ZM149.671 54.404C149.671 54.9933 149.758 55.5653 149.931 56.12C150.104 56.6747 150.295 57.004 150.503 57.108C150.676 57.004 150.85 56.6747 151.023 56.12C151.231 55.5653 151.335 54.9933 151.335 54.404C151.335 53.6067 151.248 52.8787 151.075 52.22C150.936 51.5613 150.746 50.9373 150.503 50.348C150.26 50.9373 150.052 51.5613 149.879 52.22C149.74 52.8787 149.671 53.6067 149.671 54.404ZM168.036 66C167.69 66 167.516 65.8267 167.516 65.48V30.64C167.516 30.2933 167.69 30.12 168.036 30.12H177.864C178.211 30.12 178.384 30.2933 178.384 30.64C178.384 31.0213 178.211 31.212 177.864 31.212H168.608V46.136H177.344C177.691 46.136 177.864 46.3093 177.864 46.656C177.864 47.0373 177.691 47.228 177.344 47.228H168.608V64.908H177.864C178.211 64.908 178.384 65.0813 178.384 65.428C178.384 65.8093 178.211 66 177.864 66H168.036ZM183.979 66C183.633 66 183.459 65.8267 183.459 65.48V48.58C182.593 48.3373 181.865 48.008 181.275 47.592C180.721 47.1413 180.443 46.5867 180.443 45.928C180.443 45.408 180.738 44.992 181.327 44.68C181.951 44.368 182.662 44.16 183.459 44.056V30.64C183.459 30.2933 183.633 30.12 183.979 30.12H190.063C192.317 30.12 194.033 30.9693 195.211 32.668C196.425 34.3667 197.031 36.5507 197.031 39.22C197.031 41.0227 196.65 42.6347 195.887 44.056C195.159 45.4773 194.137 46.6213 192.819 47.488C194.345 49.1867 195.471 51.5093 196.199 54.456L198.903 65.376C198.973 65.6187 198.921 65.792 198.747 65.896C198.574 65.9653 198.435 66 198.331 66C198.054 66 197.881 65.8613 197.811 65.584L195.107 54.664C194.414 51.7867 193.339 49.568 191.883 48.008C190.497 48.7013 188.971 49.048 187.307 49.048C186.337 49.048 185.418 48.9787 184.551 48.84V65.48C184.551 65.8267 184.361 66 183.979 66ZM190.063 31.212H184.551V44.004C187.637 44.004 190.15 44.9053 192.091 46.708C193.235 45.98 194.154 44.992 194.847 43.744C195.541 42.4613 195.887 40.9533 195.887 39.22C195.887 36.9667 195.419 35.0773 194.483 33.552C193.547 31.992 192.074 31.212 190.063 31.212ZM187.307 48.06C188.659 48.06 189.925 47.8 191.103 47.28C189.37 45.824 187.186 45.096 184.551 45.096V47.748C185.522 47.956 186.441 48.06 187.307 48.06ZM181.535 45.98C181.535 46.292 181.709 46.5693 182.055 46.812C182.437 47.0547 182.905 47.2627 183.459 47.436V45.148C182.939 45.1827 182.489 45.2693 182.107 45.408C181.726 45.5467 181.535 45.7373 181.535 45.98ZM203.837 66C203.491 66 203.317 65.8267 203.317 65.48V30.64C203.317 30.2933 203.491 30.12 203.837 30.12C204.08 30.12 204.253 30.224 204.357 30.432L217.929 62.828V30.64C217.929 30.2933 218.103 30.12 218.449 30.12C218.831 30.12 219.021 30.2933 219.021 30.64V65.48C219.021 65.8267 218.831 66 218.449 66C218.207 66 218.051 65.896 217.981 65.688L204.409 33.292V65.48C204.409 65.8267 204.219 66 203.837 66Z" fill="#2FD9D9"/>
<path d="M38.8652 73.436H222.141V74.476H38.8652V73.436Z" fill="#2FD9D9"/>
</svg>
