<svg width="188" height="67" viewBox="0 0 188 67" fill="none" xmlns="http://www.w3.org/2000/svg">
<rect width="188" height="67" fill="#F5F5F5"/>
<rect width="188" height="67" fill="white"/>
<path d="M33.5805 41C33.3405 41 33.2205 40.88 33.2205 40.64V16.52C33.2205 16.28 33.3405 16.16 33.5805 16.16C33.8445 16.16 33.9765 16.28 33.9765 16.52V40.244H42.1125C42.3525 40.244 42.4725 40.364 42.4725 40.604C42.4725 40.868 42.3525 41 42.1125 41H33.5805ZM46.061 41C45.821 41 45.701 40.88 45.701 40.64V16.52C45.701 16.28 45.821 16.16 46.061 16.16H52.865C53.105 16.16 53.225 16.28 53.225 16.52C53.225 16.784 53.105 16.916 52.865 16.916H46.457V27.248H52.505C52.745 27.248 52.865 27.368 52.865 27.608C52.865 27.872 52.745 28.004 52.505 28.004H46.457V40.244H52.865C53.105 40.244 53.225 40.364 53.225 40.604C53.225 40.868 53.105 41 52.865 41H46.061ZM56.6304 41C56.3904 41 56.2704 40.88 56.2704 40.64L57.9264 16.52C57.9264 16.28 58.0464 16.16 58.2864 16.16C58.4064 16.16 58.5144 16.208 58.6104 16.304L63.1104 20.336C63.5424 20.72 63.9264 21.092 64.2624 21.452C64.5984 21.092 64.9824 20.72 65.4144 20.336L69.9144 16.304C70.0104 16.208 70.1184 16.16 70.2384 16.16C70.4784 16.16 70.5984 16.28 70.5984 16.52L72.2544 40.64C72.2544 40.88 72.1344 41 71.8944 41C71.6304 41 71.4984 40.88 71.4984 40.64L69.9144 17.348L65.8824 20.912C65.4504 21.296 65.0784 21.668 64.7664 22.028C65.2464 22.628 65.5824 23.204 65.7744 23.756C65.9904 24.308 66.0984 24.872 66.0984 25.448C66.0984 26.096 65.9784 26.684 65.7384 27.212C65.5224 27.74 65.2704 28.256 64.9824 28.76C64.8624 28.976 64.7664 29.156 64.6944 29.3C64.9344 29.78 65.1384 30.32 65.3064 30.92C65.4984 31.52 65.5944 32.204 65.5944 32.972C65.5944 33.62 65.4744 34.232 65.2344 34.808C64.9944 35.36 64.6704 35.636 64.2624 35.636C63.8544 35.636 63.5304 35.36 63.2904 34.808C63.0504 34.232 62.9304 33.62 62.9304 32.972C62.9304 32.204 63.0144 31.52 63.1824 30.92C63.3744 30.32 63.5904 29.78 63.8304 29.3C63.7584 29.156 63.6624 28.976 63.5424 28.76C63.2544 28.256 62.9904 27.74 62.7504 27.212C62.5344 26.684 62.4264 26.096 62.4264 25.448C62.4264 24.296 62.8704 23.156 63.7584 22.028C63.4464 21.668 63.0744 21.296 62.6424 20.912L58.6104 17.348L57.0264 40.64C57.0264 40.88 56.8944 41 56.6304 41ZM64.1904 28.364L64.2624 28.508L64.3344 28.364C64.5984 27.884 64.8264 27.416 65.0184 26.96C65.2344 26.48 65.3424 25.976 65.3424 25.448C65.3424 24.512 64.9824 23.564 64.2624 22.604C63.5424 23.564 63.1824 24.512 63.1824 25.448C63.1824 25.976 63.2784 26.48 63.4704 26.96C63.6864 27.416 63.9264 27.884 64.1904 28.364ZM63.6864 32.972C63.6864 33.38 63.7464 33.776 63.8664 34.16C63.9864 34.544 64.1184 34.772 64.2624 34.844C64.3824 34.772 64.5024 34.544 64.6224 34.16C64.7664 33.776 64.8384 33.38 64.8384 32.972C64.8384 32.42 64.7784 31.916 64.6584 31.46C64.5624 31.004 64.4304 30.572 64.2624 30.164C64.0944 30.572 63.9504 31.004 63.8304 31.46C63.7344 31.916 63.6864 32.42 63.6864 32.972ZM74.8169 41C74.6729 41 74.5649 40.952 74.4929 40.856C74.4449 40.736 74.4329 40.628 74.4569 40.532L80.9369 16.448C80.9849 16.256 81.1049 16.16 81.2969 16.16C81.5129 16.16 81.6449 16.256 81.6929 16.448L88.2089 40.532C88.2569 40.628 88.2449 40.736 88.1729 40.856C88.1009 40.952 87.9929 41 87.8489 41C87.6569 41 87.5369 40.904 87.4889 40.712L84.9329 31.316H77.6969L75.1769 40.712C75.1289 40.904 75.0089 41 74.8169 41ZM77.9129 30.56H84.7529L81.3329 17.888L77.9129 30.56ZM90.2355 30.956C89.9955 30.956 89.8755 30.824 89.8755 30.56C89.8755 30.32 89.9955 30.2 90.2355 30.2H96.9315C97.1715 30.2 97.2915 30.32 97.2915 30.56C97.2915 30.824 97.1715 30.956 96.9315 30.956H90.2355ZM100.716 41C100.476 41 100.356 40.88 100.356 40.64L102.012 16.52C102.012 16.28 102.132 16.16 102.372 16.16C102.492 16.16 102.6 16.208 102.696 16.304L107.196 20.336C107.628 20.72 108.012 21.092 108.348 21.452C108.684 21.092 109.068 20.72 109.5 20.336L114 16.304C114.096 16.208 114.204 16.16 114.324 16.16C114.564 16.16 114.684 16.28 114.684 16.52L116.34 40.64C116.34 40.88 116.22 41 115.98 41C115.716 41 115.584 40.88 115.584 40.64L114 17.348L109.968 20.912C109.536 21.296 109.164 21.668 108.852 22.028C109.332 22.628 109.668 23.204 109.86 23.756C110.076 24.308 110.184 24.872 110.184 25.448C110.184 26.096 110.064 26.684 109.824 27.212C109.608 27.74 109.356 28.256 109.068 28.76C108.948 28.976 108.852 29.156 108.78 29.3C109.02 29.78 109.224 30.32 109.392 30.92C109.584 31.52 109.68 32.204 109.68 32.972C109.68 33.62 109.56 34.232 109.32 34.808C109.08 35.36 108.756 35.636 108.348 35.636C107.94 35.636 107.616 35.36 107.376 34.808C107.136 34.232 107.016 33.62 107.016 32.972C107.016 32.204 107.1 31.52 107.268 30.92C107.46 30.32 107.676 29.78 107.916 29.3C107.844 29.156 107.748 28.976 107.628 28.76C107.34 28.256 107.076 27.74 106.836 27.212C106.62 26.684 106.512 26.096 106.512 25.448C106.512 24.296 106.956 23.156 107.844 22.028C107.532 21.668 107.16 21.296 106.728 20.912L102.696 17.348L101.112 40.64C101.112 40.88 100.98 41 100.716 41ZM108.276 28.364L108.348 28.508L108.42 28.364C108.684 27.884 108.912 27.416 109.104 26.96C109.32 26.48 109.428 25.976 109.428 25.448C109.428 24.512 109.068 23.564 108.348 22.604C107.628 23.564 107.268 24.512 107.268 25.448C107.268 25.976 107.364 26.48 107.556 26.96C107.772 27.416 108.012 27.884 108.276 28.364ZM107.772 32.972C107.772 33.38 107.832 33.776 107.952 34.16C108.072 34.544 108.204 34.772 108.348 34.844C108.468 34.772 108.588 34.544 108.708 34.16C108.852 33.776 108.924 33.38 108.924 32.972C108.924 32.42 108.864 31.916 108.744 31.46C108.648 31.004 108.516 30.572 108.348 30.164C108.18 30.572 108.036 31.004 107.916 31.46C107.82 31.916 107.772 32.42 107.772 32.972ZM120.487 41C120.247 41 120.127 40.88 120.127 40.64V16.52C120.127 16.28 120.247 16.16 120.487 16.16H127.291C127.531 16.16 127.651 16.28 127.651 16.52C127.651 16.784 127.531 16.916 127.291 16.916H120.883V27.248H126.931C127.171 27.248 127.291 27.368 127.291 27.608C127.291 27.872 127.171 28.004 126.931 28.004H120.883V40.244H127.291C127.531 40.244 127.651 40.364 127.651 40.604C127.651 40.868 127.531 41 127.291 41H120.487ZM131.524 41C131.284 41 131.164 40.88 131.164 40.64V28.94C130.564 28.772 130.06 28.544 129.652 28.256C129.268 27.944 129.076 27.56 129.076 27.104C129.076 26.744 129.28 26.456 129.688 26.24C130.12 26.024 130.612 25.88 131.164 25.808V16.52C131.164 16.28 131.284 16.16 131.524 16.16H135.736C137.296 16.16 138.484 16.748 139.3 17.924C140.14 19.1 140.56 20.612 140.56 22.46C140.56 23.708 140.296 24.824 139.768 25.808C139.264 26.792 138.556 27.584 137.644 28.184C138.7 29.36 139.48 30.968 139.984 33.008L141.856 40.568C141.904 40.736 141.868 40.856 141.748 40.928C141.628 40.976 141.532 41 141.46 41C141.268 41 141.148 40.904 141.1 40.712L139.228 33.152C138.748 31.16 138.004 29.624 136.996 28.544C136.036 29.024 134.98 29.264 133.828 29.264C133.156 29.264 132.52 29.216 131.92 29.12V40.64C131.92 40.88 131.788 41 131.524 41ZM135.736 16.916H131.92V25.772C134.056 25.772 135.796 26.396 137.14 27.644C137.932 27.14 138.568 26.456 139.048 25.592C139.528 24.704 139.768 23.66 139.768 22.46C139.768 20.9 139.444 19.592 138.796 18.536C138.148 17.456 137.128 16.916 135.736 16.916ZM133.828 28.58C134.764 28.58 135.64 28.4 136.456 28.04C135.256 27.032 133.744 26.528 131.92 26.528V28.364C132.592 28.508 133.228 28.58 133.828 28.58ZM129.832 27.14C129.832 27.356 129.952 27.548 130.192 27.716C130.456 27.884 130.78 28.028 131.164 28.148V26.564C130.804 26.588 130.492 26.648 130.228 26.744C129.964 26.84 129.832 26.972 129.832 27.14ZM145.272 41C145.032 41 144.912 40.88 144.912 40.64V16.52C144.912 16.28 145.032 16.16 145.272 16.16C145.44 16.16 145.56 16.232 145.632 16.376L155.028 38.804V16.52C155.028 16.28 155.148 16.16 155.388 16.16C155.652 16.16 155.784 16.28 155.784 16.52V40.64C155.784 40.88 155.652 41 155.388 41C155.22 41 155.112 40.928 155.064 40.784L145.668 18.356V40.64C145.668 40.88 145.536 41 145.272 41Z" fill="#2FD9D9"/>
<path d="M31.0605 46.148H157.944V46.868H31.0605V46.148Z" fill="#2FD9D9"/>
</svg>
